<?xml version="1.0" encoding="UTF-8"?>
<svg id="svg1" xmlns="http://www.w3.org/2000/svg" version="1.1" xmlns:inkscape="http://www.inkscape.org/namespaces/inkscape" xmlns:sodipodi="http://sodipodi.sourceforge.net/DTD/sodipodi-0.dtd" xmlns:svg="http://www.w3.org/2000/svg" viewBox="0 0 712 378">
  <!-- Generator: Adobe Illustrator 29.8.1, SVG Export Plug-In . SVG Version: 2.1.1 Build 2)  -->
  <sodipodi:namedview id="namedview1" bordercolor="#000000" borderopacity="0.25" inkscape:current-layer="g1" inkscape:cx="501.45174" inkscape:cy="204.6877" inkscape:deskcolor="#d1d1d1" inkscape:pagecheckerboard="0" inkscape:pageopacity="0.0" inkscape:showpageshadow="2" inkscape:window-height="1009" inkscape:window-maximized="1" inkscape:window-width="1920" inkscape:window-x="-8" inkscape:window-y="-8" inkscape:zoom="0.75480843" pagecolor="#ffffff"/>
  <g id="g1" inkscape:groupmode="layer" inkscape:label="Image">
    <path id="path2" d="M216.01,362.95c-.3-.79-.42-7.98-.26-15.99l.29-14.55,3.66-.22c2.01-.12,5.35.22,7.41.75l3.75.97,1.22,2.67c3.29,7.23-.66,14.07-8.14,14.07h-2.91l.06,6.53.06,6.53-2.29.33c-1.26.18-2.54-.31-2.84-1.1h0ZM226.85,341.75c.36-3.02-1.12-4.66-4.23-4.69l-1.8-.02.11,3.92c.15,5.1.48,5.56,3.25,4.55l2.32-.85.35-2.91ZM247.39,360.82c-.36-1.95-.51-7.5-.32-12.35l.34-8.81,2.87-.33,2.87-.33v9.55h6.27v-4.7c0-2.59.47-4.76,1.05-4.83.57-.07,1.87-.19,2.87-.26l1.83-.13v25.09h-5.23l-.32-5.49-.32-5.49h-6.05l-.32,5.49-.32,5.49-2.29.33-2.29.33-.66-3.54ZM287.52,361.95c-.07-1.33-.21-3.6-.31-5.04s-1.92-5.58-4.05-9.2c-3.97-6.76-4.58-8.57-2.91-8.57.53,0,1.63-.26,2.44-.57l1.48-.57,2.52,4.75c3.09,5.82,3.03,5.82,6.18.05,2.68-4.91,2.96-5.11,5.66-4.07,2.38.91,2.08,2.3-1.95,8.99l-3.6,5.97-.32,5.01-.32,5.01-2.35.33-2.35.33-.13-2.42ZM317.4,361.66c-1.41-1.41-2.57-3.53-2.57-4.7v-2.14h2.05c1.13,0,2.57.97,3.21,2.15l1.15,2.15,2.27-.32c1.25-.18,2.42-1.12,2.61-2.1l.34-1.78-5.22-2.64c-7.08-3.59-8.23-9.93-2.35-13.08,4.77-2.55,12.66.71,12.66,5.24v2.01h-2.5c-1.38,0-2.77-.71-3.1-1.57-.78-2.03-4.85-2.05-4.85-.02,0,.85,2.35,2.74,5.23,4.2,5.1,2.58,5.49,3.03,5.49,6.27,0,3.73-.38,4.82-2.35,6.8-1.3,1.3-3.48,2.09-5.8,2.09h-3.71l-2.57-2.57ZM350.78,362.72c-.82-2.14.34-5.07,1.68-4.24l1.05.65v-15.8h-1.57c-.98,0-1.57-.99-1.57-2.61v-2.61h11.28l.64,1.66c.79,2.07-.06,3.56-2.04,3.56h-1.51v15.44l2.18.57,2.18.57-.36,1.9-.36,1.9-5.49.32-5.49.32-.62-1.62ZM383.76,361.33l-3.51-3.13-.04-6.23c-.06-9.29,3.35-13.87,10.32-13.87,5.47,0,10.14,6.48,5.69,7.89l-2.24.71-.94-1.69c-2.33-4.16-7.33-.86-7.31,4.82.03,8.09,3.37,11.17,7.71,7.13l2.2-2.05,1.94,1.04c2.39,1.28,2.39,1.89.03,4.96l-1.87,2.42-4.24.57-4.24.57-3.51-3.13ZM413.21,363.29l-1.46-.94,4.09-11.86,4.09-11.86h5.93l3.94,11.68,3.94,11.68-1.12,1.12c-2.02,2.02-3.79,1.18-5.34-2.54l-1.53-3.66h-6.08l-.97,3.39c-1.01,3.52-2.99,4.6-5.5,2.98ZM424.13,350.9c-.31-.81-.57-2.03-.58-2.7-.02-1.52-2.04,1.47-2.06,3.05,0,.62.71,1.13,1.6,1.13.96,0,1.38-.6,1.05-1.48h0ZM449.06,362.74c-.27-.69-.35-6.41-.19-12.69l.3-11.43,2.35-.33,2.35-.33v21.05h12.69l-.33,2.18-.33,2.18-8.18.32-8.18.32-.48-1.26ZM583.23,351.95l-4.85-12.28,1.74-1.32c2.64-2.01,3.38-1.28,6.32,6.29l2.72,6.99,2.76-6.5c2.65-6.25,5.22-8.45,7.37-6.3.78.78-6.22,19.93-8.82,24.1-1.57,2.52-2.42,1.21-7.24-10.98ZM515.18,362.38c-.27-.44-.38-7.38-.23-15.42l.26-14.62,5.72-.31,5.72-.31,2.93,2.3,2.93,2.3-.48,5.02c-.6,6.26-2.07,8.07-7.2,8.9l-4.05.65v12.28h-2.55c-1.4,0-2.78-.36-3.05-.8h0ZM525.96,343.9c.69-.83,1.1-2.59.91-3.92l-.34-2.41-2.87-.33-2.87-.33v8.5h1.96c1.08,0,2.53-.68,3.22-1.51h0ZM550.05,361.06c0-1.17.71-2.39,1.57-2.73l1.57-.6v-14.19l-1.57-.6c-.86-.33-1.57-1.58-1.57-2.78v-2.18l6,.31,6,.31.36,1.9.36,1.9-2.18.57-2.18.57v14.39h1.46c.8,0,1.67.59,1.94,1.31,1.07,2.91-.49,3.92-6.09,3.92h-5.66v-2.12ZM616.04,360.5c-4.83-6.14-3.66-17.79,2.14-21.31l3.1-1.88,3.74.84c2.05.46,4.48,1.58,5.38,2.49l1.65,1.65.4,7.11.4,7.11-2.81,3.34-2.81,3.34h-9.07l-2.11-2.69ZM625.78,356.68c.9-1.28,1.63-4.1,1.63-6.27v-3.95l-2.26-2.26-2.26-2.26-1.92,2.37c-2.44,3.02-2.55,10.17-.19,12.78,2.24,2.47,3.03,2.41,5.01-.41ZM653.55,352.76v-10.56l-2.87.3-2.87.3-.33-2.35-.33-2.35h18.96v4.05l-3.4.33-3.4.33-.14,9.93-.14,9.93-2.73.33-2.73.33v-10.56ZM262.08,315.31c-.33-.33-1.41-.71-2.41-.84s-3.22-.59-4.94-1.01c-1.72-.43-4.31-.74-5.75-.7-1.44.04-3.08-.29-3.66-.73s-4.1-1.36-7.84-2.05c-14.61-2.69-18.48-3.66-23.52-5.92-12.15-5.44-15.43-6.69-16.25-6.19-.47.29-3.36-.61-6.42-2.02-13.3-6.1-16.07-7.3-17.06-7.41-.57-.06-1.99-.61-3.14-1.22-1.15-.61-3.33-1.41-4.85-1.77l-2.76-.66-1.19,1.44c-.66.79-4.54,3.68-8.62,6.42l-7.43,4.98-7.44.19c-7,.18-22.24,3.84-30.66,7.36-1.89.79-6.28,1.76-9.74,2.15-3.46.39-6.5,1.05-6.75,1.46-.25.41-5.55.65-11.76.53l-11.3-.22-4.18-2.13c-2.3-1.17-5.11-2.29-6.25-2.49-2.67-.47-7.51-6.4-10.11-12.38-1.12-2.59-2.78-5.53-3.7-6.53s-1.36-1.83-1.01-1.83-.3-2.2-1.45-4.89-1.84-5.56-1.52-6.38c.68-1.76-1.5-9.64-2.67-9.64-.44,0-.7-4.59-.58-10.19.12-5.61-.06-11.84-.39-13.85-.34-2.01-.29-4.36.1-5.23.39-.86,1.14-2.98,1.65-4.7l.93-3.14,3.88-1.83,3.88-1.83,3.94,1.49c5.46,2.06,23.49,7.19,25.89,7.36.57.04,3.16,1.07,5.75,2.28s6.35,2.54,8.36,2.95c2.01.41,5.08,1.57,6.82,2.57,1.74,1,4.9,2.1,7.02,2.44,5.33.86,26.21,11.11,28.22,13.84.42.57.78.69.78.25,0-.44,1.9.39,4.2,1.84,2.3,1.45,4.19,2.28,4.2,1.84,0-.44.36-.26.78.39s2.48,2.14,4.57,3.31l3.8,2.13,4.82-4.69c2.65-2.58,4.83-5.48,4.83-6.45,0-.97,1.41-3.41,3.13-5.42,1.72-2.01,3.13-4.17,3.13-4.8,0-.63.93-1.99,2.07-3.01s2.38-2.86,2.76-4.06c.78-2.46,4.68-8.32,5.9-8.86.43-.19.54-.76.23-1.26-.65-1.04.92-4.08,4.83-9.36,3.44-4.65,6.18-10.25,6.18-12.62,0-2.14,3.29-8.27,4.44-8.28.43,0,.78-.96.78-2.12s1.1-3.87,2.44-6.01c1.34-2.14,2.7-4.92,3.01-6.16l.57-2.26-3,.38c-1.65.21-4.03,1.34-5.29,2.51-1.26,1.17-3.26,2.4-4.45,2.73-3.96,1.1-7.24,3.04-11,6.52-2.04,1.89-5.04,3.72-6.66,4.07-1.62.34-3.67,1.73-4.56,3.09-.89,1.36-2.12,2.47-2.74,2.47s-2.18,1-3.48,2.21l-2.36,2.21-4.5-.09c-2.48-.05-6.07.64-7.99,1.54-1.92.89-4.6,1.34-5.97,1l-2.48-.62-.69-3.69-.69-3.69,1.85-2.05c1.02-1.13,2.42-2.05,3.1-2.05s2.25-.82,3.48-1.83c1.23-1.01,3.41-2.67,4.85-3.7,1.44-1.03,2.53-2.2,2.42-2.61-.11-.41.36-3.1,1.06-5.97.69-2.87,1.21-6.17,1.15-7.32-.06-1.15.38-5.59.98-9.87.68-4.94.72-8.46.09-9.63l-.99-1.85-1.81.66c-1,.36-2.94,1.76-4.31,3.1-1.37,1.34-3.73,2.44-5.24,2.44s-4,1.17-5.55,2.6c-1.54,1.43-5.54,3.79-8.88,5.25-3.34,1.46-8.19,3.77-10.78,5.15l-4.7,2.5-4.18-.82c-6.44-1.27-7.43-1.92-11.77-7.71-4.39-5.87-6.53-10.16-6.53-13.16,0-2.1,5.41-4.91,7.25-3.78.61.38,1.11.27,1.11-.23s3.06-1.99,6.8-3.31c3.74-1.32,6.8-2.74,6.8-3.16,0-1.04,4.88-3.19,7.25-3.19,3.03,0,23.54-10.77,26.89-14.13.82-.82,3.24-1.99,5.37-2.59,4.91-1.39,11.16-6.91,12.43-10.98,2.4-7.7.06-20.14-4.13-21.97l-2.33-1.02-.06-8.36c-.07-10.2,2.54-22.17,5.28-24.17,3.99-2.92,12.56-1.04,15.63,3.42,2.17,3.16,3.77,11.79,3.98,21.54l.2,9.15,1.73.55c.95.3,3.08.02,4.74-.61,1.66-.64,5.13-1.57,7.72-2.06,10.45-2,13.38-2.85,18.08-5.2,2.7-1.35,4.92-2.89,4.92-3.41s2.37-.67,5.49-.28c13.29,1.64,18.89,4.66,19.77,10.65l.45,3.05-2.14,2.13c-1.18,1.17-4.9,3.74-8.27,5.72s-6.36,4.18-6.65,4.89-1.11,1.31-1.85,1.31-1.94.74-2.69,1.64c-.75.9-3.09,2.53-5.2,3.6-3.77,1.92-7.16,4.46-12.15,9.12-1.38,1.29-3.78,2.66-5.32,3.05-1.54.39-4.34,2.19-6.22,4.02-1.88,1.82-5.18,4.22-7.33,5.32-2.16,1.1-4.79,3.06-5.85,4.36s-2.71,2.37-3.68,2.39c-2.88.05-5.81,2.92-6.13,5.98-.31,3.02-1.77,10.85-3.64,19.59-.61,2.87-1.81,6.73-2.65,8.56-1.83,3.97-1.06,7.2,1.9,7.97l2.14.56-.63-1.64-.63-1.64,1.63,1.36,1.63,1.36,3.42-3.32c1.88-1.82,3.75-3,4.14-2.6s.72.22.72-.38,1.53-1.71,3.4-2.48c4.74-1.93,13.45-7.58,15.92-10.33,1.92-2.14,9.73-6.32,11.81-6.32.51,0,2.01-1.16,3.34-2.57,1.47-1.57,4.12-2.83,6.77-3.22l4.35-.65,6.22,2.96,6.22,2.96.32,3.34c.18,1.89-.45,4.52-1.45,6.05-.98,1.49-1.88,3.75-2.02,5.02-.13,1.27-.3,2.9-.38,3.62s-.87,1.31-1.78,1.31c-4.12,0-15.98,18.47-17.79,27.69-.22,1.14-1.35,3.36-2.51,4.92-1.16,1.56-2.1,3.75-2.1,4.86s-1.1,2.74-2.46,3.62c-1.46.96-3,3.56-3.8,6.42-.74,2.65-1.75,5.06-2.25,5.37-.5.31-.9,1.69-.9,3.07s-1.42,4.13-3.16,6.11c-1.74,1.98-3.7,5.16-4.37,7.07-1.24,3.56-9.08,15.78-10.53,16.43-.94.42-3.33,4.93-4.34,8.21l-.71,2.29,4.5,1.23c2.47.68,6.08,1.93,8.03,2.78,1.94.85,4.06,1.66,4.7,1.8.65.14,1.88.54,2.74.88.86.35,3.69,1.16,6.27,1.81,2.59.65,5.81,1.89,7.16,2.76,1.35.87,3.35,1.34,4.44,1.06s2.22-.13,2.52.35c.3.48,2.01.68,3.81.46,1.8-.23,3.79-.09,4.43.31.64.4,1.63.82,2.2.94.57.12,5.51,1.21,10.98,2.42l9.93,2.21,13.59.15c7.69.08,15.18-.37,17.25-1.04,2.01-.65,4.83-1.18,6.27-1.19,1.44,0,5.57-.01,9.19-.02h6.58s7.54-2.74,7.54-2.74c4.14-1.5,9.81-2.92,12.59-3.16,2.78-.24,5.58-.76,6.23-1.16s3.03-.83,5.28-.95,4.42-.74,4.81-1.37c.39-.63,2.8-1.2,5.35-1.26,2.55-.06,7.08-.79,10.06-1.62,2.98-.83,7.21-1.67,9.41-1.87s5.64-.66,7.65-1.01,4.57-.79,5.69-.98,2.53-1.2,3.14-2.24,1.92-2.77,2.92-3.82l1.82-1.91,9.59.07,9.59.07,2.44,1.6c1.34.88,2.44,2.47,2.44,3.54,0,1.96-3.4,4.53-4.52,3.41-.34-.34-2.77-.29-5.41.11l-4.79.72,2.16,3.5,2.16,3.5-2.9,2.03c-1.6,1.12-4.25,2.36-5.89,2.75-3.87.94-12.6,6.97-13.01,8.99-.48,2.34-3.17,4.03-5.48,3.43-1.12-.29-3.3.29-4.85,1.31-1.6,1.05-5.31,1.97-8.63,2.15-3.2.17-7.93,1.07-10.52,2.01-2.59.93-6.82,1.94-9.41,2.23s-6.82,1.18-9.41,1.97c-2.59.79-6.94,1.75-9.68,2.14-2.74.38-5.22,1.09-5.51,1.56s-1.44.69-2.55.47c-1.11-.21-3.57.04-5.47.55-7.72,2.11-40.49,3.87-42.09,2.26h0ZM78.32,299.49c1.86-.53,3.39-.61,3.39-.17s1.06.68,2.35.54,3.34-.3,4.56-.35c1.21-.05,3.94-1.26,6.06-2.7,2.12-1.44,4.77-2.61,5.9-2.61s2.04-.38,2.04-.85,2.41-1.47,5.36-2.22c2.95-.76,6.59-2.02,8.1-2.8,1.51-.79,3.3-1.43,3.98-1.44.68,0,1.85-.6,2.61-1.34.76-.73,4.16-3.16,7.56-5.39s7.07-4.96,8.17-6.06l1.99-1.99-1.24-1.5c-.68-.82-2.07-1.5-3.08-1.5s-2.4-.68-3.09-1.51c-.69-.83-3.51-2.26-6.28-3.18-2.76-.92-5.86-2.59-6.88-3.72-1.02-1.13-2.78-2.05-3.91-2.05-1.97,0-11.89-3.87-17.56-6.85-1.48-.78-4.54-1.88-6.8-2.45-13.17-3.31-27.33-8.24-29.56-10.3-1.4-1.29-3.18-2.35-3.96-2.35s-1.42-.39-1.42-.88-1.14-1.4-2.53-2.03l-2.53-1.15-2.63,2.44c-2.34,2.17-5.27,9.5-4.69,11.75.12.47-.18,2.97-.67,5.56-1.1,5.81-.85,10.4.66,12.21.63.76.88,1.38.56,1.38s-.11,1.53.45,3.4,1.19,4.1,1.39,4.97c.66,2.88,4.09,9.41,4.95,9.41.47,0,.85.82.85,1.83,0,1.97,5.21,8.62,6.74,8.62.51,0,1.84.82,2.95,1.83s3.97,2.36,6.35,3c5.84,1.58,5.95,1.58,9.83.47h0ZM187.77,101.4c.6-.66,2.02-2.28,3.15-3.59l2.06-2.39-4.46.51c-6.59.76-7.83,2.24-6.53,7.81.16.67,4.72-1.17,5.78-2.33h0ZM164.89,84.41c-.07-3.33-1.64-5.17-1.64-1.92,0,.86-.43,1.57-.95,1.57s-.8.82-.6,1.83c.42,2.21.23,2,1.89,2h1.38l-.07-3.48ZM480.71,312.31c-.38-.38-.7-1.79-.7-3.12v-2.42l2.35-.58c1.29-.32,3.87-.68,5.74-.8s3.61-.82,3.89-1.53c.28-.72,1.25-1.31,2.16-1.31,1.41,0,13.56-7.5,15.13-9.34.29-.34,2.51-1.9,4.94-3.47,2.43-1.57,5.18-4.02,6.1-5.44s2.51-2.84,3.51-3.15c4.34-1.38,18.9-18.77,18.9-22.58,0-.61.57-2.13,1.26-3.39s1.39-2.99,1.55-3.85c.16-.86,1.95-4.83,3.97-8.83,2.02-3.99,3.68-8.4,3.68-9.79v-2.53l-2.35.55c-4.87,1.14-6.65,1.67-10.98,3.22-2.44.88-4.44,1.33-4.44,1s-.78.04-1.73.83-2.48,1.46-3.4,1.5c-.92.03-3.45.84-5.62,1.79-6.71,2.93-22.4,9.12-23.11,9.12-.37,0-4.78,1.59-9.8,3.53-5.02,1.94-10.87,3.84-13.01,4.22-2.14.38-4.53,1.34-5.32,2.13-3.98,3.98-13.27,4.58-17.03,1.1l-2.82-2.61-.49-5.09c-.3-3.13-.04-5.37.68-5.81.64-.4,1.17-1.46,1.17-2.37,0-2.57,3.52-5,10.13-7.02,8.05-2.45,10.8-3.39,20.71-7.08,4.6-1.71,9.21-3.29,10.26-3.51,1.04-.22,4.51-1.59,7.71-3.05,3.2-1.46,6.82-2.68,8.04-2.7,1.22-.02,4.11-.94,6.41-2.06s5.15-2.04,6.32-2.06c1.18-.02,2.59-.45,3.14-.95,1.79-1.65,23.69-9.14,29.22-9.99,1.15-.18,2.34-.38,2.64-.45,1.47-.36,10.11-21.04,8.79-21.04-.32,0,.16-1.05,1.05-2.32.9-1.28,1.63-3.39,1.63-4.69v-2.37l-2.87.36c-3.46.43-9.67,2.94-9.67,3.9,0,.38-1.53,1.31-3.4,2.07-1.87.76-4.65,2.54-6.17,3.95-1.67,1.55-4.12,2.61-6.14,2.67l-3.36.1-1.95-2.61c-1.07-1.44-2.34-3.1-2.83-3.68-.48-.59-.68-1.64-.45-2.34.57-1.7-1.75-8.61-2.89-8.61-.49,0-1.16-.85-1.5-1.9s-2.22-3.66-4.2-5.82c-3.45-3.77-9.26-11.79-13.59-18.77-1.13-1.82-2.42-3.46-2.87-3.65-.45-.19-.83-.83-.83-1.41s-3.59-4.66-7.98-9.06c-8.94-8.96-10.72-11.32-11.41-15.11l-.48-2.63,3.22-2.71c3.75-3.16,5.99-3.44,6.94-.88.38,1.01,3.77,4.94,7.55,8.74,8.79,8.85,14.43,15.71,16.04,19.53,1.27,3.01,11.98,15.6,12.55,14.77.16-.24.94-1.7,1.71-3.25,1.55-3.08,13.4-15.48,14.8-15.48.48,0,2.09-1.22,3.57-2.7l2.7-2.7-2.06-.54c-1.94-.51-4.23-4.23-5.79-9.41-.73-2.42,1.6-11.69,4.27-17.06l1.6-3.2.47-12.25c.26-6.74.49-12.72.52-13.3.05-1.11-1.11-19.61-1.59-25.34-.16-1.86-1.13-4.32-2.16-5.46l-1.88-2.07.57-4.25c.88-6.55,6.28-10.16,8.81-5.88.46.78,1.85,1.95,3.08,2.59l2.24,1.18,1.09,5.51c.6,3.03,1.59,7.81,2.2,10.63s.85,7.52.54,10.45l-.57,5.33,1.55,2.09,1.55,2.09,2.1-1.28c3.7-2.26,17.11-6.56,20.43-6.56,8.08,0,15.83,8.94,12.35,14.23-1.02,1.54-9.13,5.63-11.19,5.63-.89,0-4.08,1.19-7.09,2.64s-7.22,3.11-9.36,3.69-5.27,2.21-6.97,3.64l-3.09,2.6.23,7.57c.13,4.16-.22,8.62-.78,9.92l-1.02,2.35,1.19,2.61c1.58,3.46,4.46,3.31,7.77-.42l2.7-3.03,4.27-.72c2.35-.4,4.27-1.15,4.27-1.67s.61-.95,1.36-.95,3.69-1.5,6.53-3.34l5.17-3.34,7.06.17,7.06.17,7.57,4.02,7.57,4.02,3.09,5.85,3.09,5.85-2.97,4.29c-1.63,2.36-3.4,4.29-3.92,4.29s-4.1,1.44-7.96,3.19c-10.13,4.61-12.18,5.62-12.76,6.29-.29.33-2.34,1.31-4.57,2.18l-4.04,1.58,4.57,2.64c2.51,1.45,6.39,3.49,8.62,4.54,4.78,2.23,13.39,9.78,12.6,11.05-.81,1.3,1.58,5.27,2.74,4.55.55-.34.99-.14.99.43,0,1.86-1.94,2.3-2.86.65l-.9-1.61-4.05,1.4-4.05,1.4-5.84-1.35c-7.75-1.79-27.43-.53-28.9,1.85-.31.5-2.3.92-4.42.94s-4.8.77-5.95,1.68l-2.09,1.64,2.37-.71,2.37-.71,1.55,3.7c.85,2.04,1.55,4.84,1.55,6.22s.75,3.14,1.66,3.89l1.66,1.37-.68,4.5-.68,4.5,2.42-.02c1.33-.01,4.3-.51,6.6-1.1,8.21-2.12,11.55-2.89,15.16-3.47,5.65-.92,18.11-3.74,19.86-4.49,3.27-1.41,11.15-.88,15.68,1.05,4.62,1.96,15.6,8.79,16.83,10.46,1.31,1.78-.38,5.97-2.58,6.4-1.23.24-5.29.99-9.02,1.66-9.55,1.73-24.96,5.12-29.12,6.41-1.93.6-5.46,1.22-7.84,1.38-4.97.34-17.72,3.22-20.34,4.59-.97.51-3.88,1.25-6.47,1.64-7.38,1.13-11,2.52-13.54,5.22l-2.34,2.49.66,2.07c.36,1.14,0,3.88-.82,6.1-.81,2.22-2.34,6.85-3.39,10.3-1.05,3.45-3.23,8.3-4.83,10.77-1.61,2.47-2.92,5.18-2.92,6.02s-1.41,3.47-3.14,5.85-3.14,4.81-3.14,5.41c0,1.79-8.16,13.73-11.24,16.45-6.19,5.47-16.99,12.43-16.99,10.94,0-.3-2.65.63-5.88,2.06-3.23,1.43-6.54,2.6-7.35,2.6s-3.22.79-5.36,1.75c-2.14.96-4.59,1.89-5.45,2.06s-3.69.77-6.27,1.34c-5.68,1.25-7.79,1.35-8.71.43h0ZM558.15,156.98c1.29-1.21,2.35-1.85,2.35-1.42,0,1.19,6.49-3.68,9.24-6.93,1.34-1.59,3.12-2.89,3.95-2.89s1.78-.71,2.11-1.57,1.09-1.57,1.69-1.57,3.85-2.82,7.21-6.27c3.37-3.45,6.54-6.27,7.05-6.27s2.44-1.41,4.29-3.14c1.85-1.72,3.84-3.14,4.43-3.14,1.15,0,6.02-5.25,6.02-6.5,0-.41-.59-.54-1.31-.29-1.28.45-6.02,1.46-9.15,1.95-1.92.3-6.52,2.91-15.45,8.77-3.73,2.44-6.98,4.44-7.23,4.44-3.84,0-22.47,18.45-24.72,24.48-1.6,4.3,5.02,4.54,9.51.35h0ZM659.82,307.85c-4.39-.88-8.36-2.91-8.36-4.27,0-.54-1.29-1.31-2.87-1.7-1.58-.39-4.63-1.81-6.77-3.16s-4.56-2.45-5.36-2.45-2.02-.68-2.71-1.51-2.27-1.65-3.51-1.83c-3.01-.43-3.49-3.62-.97-6.43,2.85-3.17,3.61-5.86,2.05-7.3-2.08-1.92-7.92-5.93-8.62-5.93-.35,0-2.82-1.5-5.48-3.33-4.32-2.97-11.13-6.94-23.64-13.78-4.3-2.35-10.49-8.04-12.18-11.19l-1.01-1.88,2.33-1.63c3.64-2.55,28.51-1.12,32.14,1.85.89.72,3.02,2,4.75,2.84,1.72.84,3.76,2.11,4.52,2.83s2.05,1.31,2.87,1.31,1.49.47,1.49,1.05.63,1.05,1.41,1.05,2.26.94,3.3,2.09c1.04,1.15,2.43,2.09,3.08,2.09s3.52,2.11,6.37,4.7,5.54,4.7,5.97,4.7c.43,0,2.59,1.77,4.81,3.92,2.21,2.16,5.86,5.61,8.1,7.67,4.41,4.06,9.96,10.36,9.12,10.36-.28,0,.9,1.79,2.64,3.98,8.85,11.17,2.19,19.08-13.43,15.95h0Z" sodipodi:nodetypes="sscsscsscccssssscsscssscccccccssscccccccccccccsssssscsssscccccssscsscsscssscssssssscssscccsscccsscccccccccsccssscssscssccccscccccccsscccsssscsssscccccccccccsscsscsssssscccccsscccsssscccccsssscccsscccccccccssscssscsscccccccssscccssscccccccccccccccccsssssssssssscsscssssscsssssssssssscccssssssscscsscscscsssssscssscsssssssscssscccsssssscsscsssssscsssssssssssscsssscssssssscsssssssssssssssscccccsssssssscccsssssssssssssssscsssssssssssscsscccsssssssssssscccsssscccsssssssssssssssssssssssscssscsssssssssssscssssssssssssssscsssssssscssscssssssssssssscssssssssssscsssssssssssssssscssssscssssssssssscsssssssscssscsssscssscssscccssssssscsscsscsssscccccccssssscsssssscccsssscccssscccssssssssssssscssssssssssssssssssssssssssssssssssssssssssssscsssssssssscsssss"/>
  </g>
</svg>